<?xml version="1.0" encoding="utf-8"?>
<!DOCTYPE svg PUBLIC "-//W3C//DTD SVG 1.1//EN" "http://www.w3.org/Graphics/SVG/1.1/DTD/svg11.dtd">
<svg version="1.1" id="Logo" xmlns="http://www.w3.org/2000/svg" xmlns:xlink="http://www.w3.org/1999/xlink" x="0px" y="0px"
	 width="100px" height="45px" viewBox="0 0 100 45" enable-background="new 0 0 100 45" xml:space="preserve">
<g>
	<path fill="#EDEDED" d="M45.52,37.432c-0.964,1.217-2.03,2.639-3.394,3.432c-1.561,0.916-2.907,0.775-4.496-0.084
		c-1.647-0.895-2.601-2.316-3.301-4.02c-0.534-1.295-1.272-3.637-3.125-2.855c-1.324,0.531-2.528,1.51-3.672,2.344
		c-1.696,1.25-3.464,2.43-5.335,3.396c-1.633,0.844-3.422,1.61-5.262,1.815c-1.739,0.19-2.576-2.297-2.576-3.706
		c-2.589,2.568-5.074,5.221-8.772,6.081c-1.462,0.343-2.891,0.229-3.875-1.005C0.655,41.502-0.022,40.248,0,38.529
		c0.039-2.865,0.917-5.731,1.738-8.453c1.141-3.78,2.432-7.519,3.803-11.219c1.073-2.896,2.228-5.751,3.622-8.505
		c0.852-1.683,1.762-3.334,2.754-4.937c0.69-1.114,1.712-3.194,3.188-3.404c0.839-0.119,2.114,0.861,2.019,1.775
		c-0.068,0.667-0.406,1.344-0.659,1.953c-1.301,3.132-2.888,6.134-4.354,9.188c-3.22,6.703-5.966,13.932-7.061,21.34
		c-0.1,0.674-0.275,1.521-0.068,2.193c0.357,1.156,1.926,0.859,2.752,0.521c2.573-1.053,5.384-2.646,7.585-4.332
		c3.941-6.328,9.509-11.687,16.287-14.749c1.325-0.599,2.665-0.793,4.105-0.476c1.828,0.401,2.669,1.674,3.327,3.349
		c0.571,1.466-0.087,2.952-1.845,2.813c-0.898-0.072-1.324-0.802-2.065-1.184c-0.928-0.475-1.738,0.031-2.56,0.474
		c-2.177,1.169-4.182,2.495-5.982,4.216c-1.546,1.479-3.513,3.344-4.418,5.334c-0.399,0.875,0.946-0.064,1.143-0.199
		c0.979-0.672,1.961-1.338,2.942-2.006c2.201-1.494,4.546-2.757,6.966-3.853c1.368-0.618,3.367-1.763,4.81-0.804
		c0.831,0.554,1.519,1.531,1.791,2.496c0.299,1.056-0.475,1.961-0.77,2.938c-0.607,2.012-0.25,5.648,2.492,5.711
		c1.155,0.025,2.128-0.492,3.031-1.178c0.15-0.113,2.08-1.635,2.066-1.689C46.731,36.188,45.693,37.214,45.52,37.432
		C44.097,39.229,46.952,35.634,45.52,37.432z"/>
	<path fill="#EDEDED" d="M64.239,21.163c1.161-0.961,2.389-0.181,3.271,0.694c1.119,1.106,2.063,1.993,3.688,2.189
		c1.091,0.132,2.22-0.013,3.3-0.169c0.784-0.111,1.561-0.262,2.339-0.406c0.333-0.063,1.062-0.336,1.405-0.215
		c-0.113-0.04-0.901,0.305-1.038,0.342c-0.945,0.262-1.896,0.504-2.845,0.748c-1.752,0.453-3.563,0.795-5.284,1.352
		c-3.167,1.021-5.265,4.17-7.173,6.75c-1.995,2.701-3.92,5.527-5.602,8.441c-0.738,1.279-2.134,2.86-3.766,2.381
		c-1.762-0.517-2.647-2.197-2.925-3.912c-0.258-1.603-0.43-3.102-0.938-4.657c-0.677-2.075-1.614-3.983-2.544-5.945
		c-0.59-1.243-0.998-2.702,0.061-3.813c1.264-1.32,3.187-0.938,4.203,0.438c0.974,1.315,1.512,2.938,2.021,4.479
		c0.205,0.619,0.696,3.865,1.397,3.998c0.576,0.104,1.254-0.957,1.545-1.313c1.023-1.245,1.981-2.549,2.938-3.849
		c1.24-1.689,2.466-3.391,3.721-5.069C62.691,22.722,63.318,21.839,64.239,21.163C64.604,20.86,63.872,21.432,64.239,21.163z"/>
	<path fill="#EDEDED" d="M86.098,19.448c3.086-0.814,5.987,0.876,6.514,4.121c0.229,1.395-1.149,2.313-2.435,1.955
		c-0.805-0.226-1.241-1.019-2.038-1.254c-0.818-0.242-1.527,0.242-2.222,0.612c-3.074,1.647-5.72,3.701-8.01,6.368
		c-0.823,0.959-1.857,2.007-2.39,3.18c-0.44,0.969,1.977-0.77,2.246-0.955c2.832-1.931,5.682-3.688,8.805-5.102
		c1.104-0.499,2.317-1.083,3.541-1.189c1.273-0.113,2.27,1.19,2.789,2.211c0.717,1.399-0.097,2.279-0.498,3.604
		c-0.521,1.703-0.438,3.845,0.957,5.144c0.959,0.893,2.498,0.637,3.551,0.063c0.361-0.196,3.146-2.125,3.082-2.357
		c0.173,0.617-1.971,2.637-2.352,3.063c-0.854,0.953-1.755,1.828-2.932,2.357c-2.581,1.164-5.695-1.433-6.689-3.707
		c-0.521-1.193-0.845-2.824-1.998-3.586c-0.99-0.654-2.229,0.284-3.055,0.82c-2.895,1.879-5.548,4.053-8.717,5.475
		c-1.301,0.584-2.805,1.164-4.242,1.209c-1.271,0.041-2.025-1.83-2.215-2.854c-0.51-2.806,1.568-5.099,3.143-7.136
		c2.11-2.743,4.418-5.35,7.149-7.479C80.416,22.19,83.252,20.324,86.098,19.448C86.861,19.246,85.332,19.683,86.098,19.448z"/>
</g>
</svg>
