<?xml version="1.0" encoding="utf-8"?>
<!-- Generator: Adobe Illustrator 16.0.3, SVG Export Plug-In . SVG Version: 6.00 Build 0)  -->
<!DOCTYPE svg PUBLIC "-//W3C//DTD SVG 1.1//EN" "http://www.w3.org/Graphics/SVG/1.1/DTD/svg11.dtd">
<svg version="1.1" id="Ebene_1" xmlns="http://www.w3.org/2000/svg" xmlns:xlink="http://www.w3.org/1999/xlink" x="0px" y="0px"
	 width="64px" height="150px" viewBox="0 0 64 150" enable-background="new 0 0 64 150" xml:space="preserve">
<g id="Ebene_1_1_">
</g>
<g id="Ebene_2">
	<path fill="#6D7379" d="M36.997,22c0.344,0,0.688,0.118,0.964,0.353c0.518,0.436,0.682,1.154,0.402,1.771l-3.762,8.288l3.767,8.479
		c0.272,0.611,0.104,1.338-0.417,1.77c-0.521,0.43-1.264,0.457-1.813,0.068l-13-9.1c-0.404-0.279-0.645-0.742-0.642-1.232
		c0.003-0.492,0.246-0.951,0.651-1.229l13-8.901C36.406,22.087,36.702,22,36.997,22z"/>
</g>
<g id="Ebene_2_1_">
	<path fill="#6D7379" d="M27.255,132.588c-0.33,0-0.661-0.111-0.926-0.338c-0.497-0.421-0.655-1.107-0.386-1.702l3.614-7.96
		l-3.619-8.146c-0.262-0.586-0.1-1.282,0.4-1.697c0.501-0.412,1.214-0.438,1.741-0.063l12.485,8.738
		c0.389,0.27,0.619,0.712,0.617,1.186c-0.006,0.473-0.236,0.914-0.625,1.181l-12.49,8.55
		C27.822,132.505,27.538,132.588,27.255,132.588z"/>
</g>
</svg>
